HIERARCHY
ROOT pelvis
{
  OFFSET 0 100 0
  CHANNELS 6 Xposition Yposition Zposition Zrotation Xrotation Yrotation
  JOINT pelvis_right_femur
  {
    OFFSET -10.78128 -3.44521 -0.5502486
    CHANNELS 3 Zrotation Xrotation Yrotation
    JOINT right_femur_tibia
    {
      OFFSET -0.8047443 -44.0398 -0.1307829
      CHANNELS 3 Zrotation Xrotation Yrotation
      JOINT right_tibia_foot
      {
        OFFSET 3.006224 -47.83518 -5
        CHANNELS 3 Zrotation Xrotation Yrotation
        End Site
        {
          OFFSET 0 -5 15
        }
      }
    }
  }
  JOINT pelvis_left_femur
  {
    OFFSET 10.78128 -3.44521 -0.5502486
    CHANNELS 3 Zrotation Xrotation Yrotation
    JOINT left_femur_tibia
    {
      OFFSET 0.8047443 -44.0398 -0.1307829
      CHANNELS 3 Zrotation Xrotation Yrotation
      JOINT left_tibia_foot
      {
        OFFSET -4.370144 -48.10324 -4.275266
        CHANNELS 3 Zrotation Xrotation Yrotation
        End Site
        {
          OFFSET 0 -5 15
        }
      }
    }
  }
  JOINT pelvis_spine1
  {
    OFFSET 0 6.468898 -3.129235
    CHANNELS 3 Zrotation Xrotation Yrotation
    JOINT spine1
    {
      OFFSET 0 23.15396 4.99043
      CHANNELS 3 Zrotation Xrotation Yrotation
      JOINT spine2
      {
        OFFSET 0 20.79997 -5.064912
        CHANNELS 3 Zrotation Xrotation Yrotation
        JOINT neck
        {
          OFFSET 0 14.38658 9.616178
          CHANNELS 3 Zrotation Xrotation Yrotation
          End Site
          {
            OFFSET 0 20 0
          }
        }
      }
      JOINT right_manubrium
      {
        OFFSET -5.722621 16.35077 3.967754
        CHANNELS 3 Zrotation Xrotation Yrotation
        JOINT right_clavicle
        {
          OFFSET -13.16364 1.694482 -4.693211
          CHANNELS 3 Zrotation Xrotation Yrotation
          JOINT right_humerus
          {
            OFFSET -28.5034 -0.3100689 -2.792744
            CHANNELS 3 Zrotation Xrotation Yrotation
            JOINT right_radius
            {
              OFFSET -25.15693 0.02248979 -1.271978
              CHANNELS 3 Zrotation Xrotation Yrotation
              End Site
              {
                OFFSET -15 0 0
              }
            }
          }
        }
      }
      JOINT left_manubrium
      {
        OFFSET 5.722621 16.35077 3.967754
        CHANNELS 3 Zrotation Xrotation Yrotation
        JOINT left_clavicle
        {
          OFFSET 13.16364 1.694482 -4.693211
          CHANNELS 3 Zrotation Xrotation Yrotation
          JOINT left_humerus
          {
            OFFSET 29.39168 -1.063119 -2.237045
            CHANNELS 3 Zrotation Xrotation Yrotation
            JOINT left_radius
            {
              OFFSET 24.59957 -0.9528479 0.9047498
              CHANNELS 3 Zrotation Xrotation Yrotation
              End Site
              {
                OFFSET 15 -0 -0
              }
            }
          }
        }
      }
    }
  }
}
MOTION
Frames: 13
Frame Time: 0.0416666666667
-629.9575 102.0817 2929.96 -0.769999 -4.087714 -28.03622 1.673395 -25.66823 -3.377947 -0 5.463405 -0 -5.670895 2.699356 -4.96645 -5.662293 17.73922 -6.717047 -0 22.59686 -0 -2.123535 -18.54847 11.7361 1.723134 -2.670231 6.710816 -0.2317136 15.54935 -7.110271 1.627492 20.15813 3.045492 -0.2858587 -21.66943 6.013056 -6.918163 -27.13549 10.82131 99.38595 18.27606 -19.30381 -0 0 15.10784 -20.62689 10.60234 12.04152 1.40456 -25.82794 -8.294521 -85.37738 13.26428 24.52947 0 0 -30.65195 4.938855 10.42056 10.27999
-633.8006 101.7512 2936.045 -1.601273 -4.121945 -27.93853 3.456576 -23.74142 -2.137068 -0 7.733586 -0 -6.062872 3.125204 -5.18952 -4.81939 17.80733 -6.419225 -0 30.99254 -0 -3.316278 -15.37823 11.52522 1.786015 -2.605554 6.905046 -0.3082258 15.64811 -7.051642 1.647563 19.95032 2.851678 -0.4291106 -21.60212 5.912732 -7.033043 -27.59178 10.77562 99.30776 18.59232 -18.76532 -0 0 16.04723 -20.53088 10.8547 12.17051 1.179561 -25.53232 -8.245155 -85.49568 12.99029 25.42329 0 0 -30.36441 4.5113 10.15224 10.77273
-637.7469 102.1826 2942.173 -2.788644 -4.597141 -28.23389 5.313507 -20.39321 -0.412133 -0 11.27113 -0 -6.380343 2.788974 -5.496125 -3.85547 16.06264 -6.179909 -0 40.96992 -0 -4.335096 -11.59568 11.93983 1.801159 -2.46629 7.132758 -0.3991779 15.69862 -6.865172 1.706849 19.73697 2.568493 -0.6483951 -21.57795 5.819255 -7.112351 -28.23895 10.68981 98.86481 18.92509 -17.57323 -0 0 17.56409 -20.48261 11.3043 12.52355 0.9299224 -24.86413 -8.073312 -86.07132 12.86916 26.97283 0 0 -29.06262 3.849991 9.913856 11.53108
-641.5798 103.2575 2948.102 -3.847887 -5.379304 -28.9766 6.583279 -15.71459 1.218861 -0 14.04421 -0 -6.520262 1.410305 -5.755815 -3.124742 12.11902 -5.931574 -0 50.87128 -0 -5.00999 -8.238746 12.89167 1.780426 -2.272161 7.407051 -0.5078665 15.71587 -6.581102 1.795226 19.49051 2.202259 -0.9380363 -21.57084 5.72178 -7.175808 -29.07746 10.56962 98.13509 19.317 -15.83285 -0 0 19.62365 -20.46339 11.93284 13.0585 0.6384082 -23.8922 -7.797007 -86.9909 12.80029 29.08299 0 0 -27.01574 2.975976 9.657121 12.52915
-645.1573 104.6797 2953.655 -4.397678 -6.21625 -30.03927 6.892799 -10.14257 2.305299 -0 14.85722 -0 -6.530576 -0.8995586 -5.740634 -2.727919 6.211812 -5.691423 -0 58.49768 -0 -5.314095 -6.11599 14.09877 1.731018 -2.044145 7.723728 -0.6325055 15.70351 -6.238166 1.9001 19.20107 1.777419 -1.27813 -21.55797 5.617253 -7.23874 -30.06047 10.4217 97.2204 19.79878 -13.71425 -0 0 22.09172 -20.45228 12.68596 13.7085 0.3048245 -22.71766 -7.440648 -88.10357 12.70357 31.55647 0 0 -24.56001 1.94721 9.345996 13.69924
-648.4595 106.0813 2958.786 -4.393139 -6.882086 -31.1913 6.409769 -4.339554 2.759377 -0 13.84928 -0 -6.516125 -3.670146 -5.30692 -2.43388 -0.8272204 -5.487281 -0 61.89011 -0 -5.364139 -5.40128 15.29607 1.650878 -1.800326 8.054146 -0.7622623 15.64927 -5.870911 2.00984 18.89171 1.337808 -1.635438 -21.53918 5.517258 -7.30231 -31.09226 10.25325 96.21021 20.35142 -11.41317 -0 0 24.73781 -20.44091 13.47819 14.4037 -0.04149678 -21.4501 -7.029472 -89.28241 12.57254 34.13487 0 0 -21.97288 0.8573838 8.983795 14.93596
-651.5435 107.1258 2963.568 -4.083454 -7.23531 -32.24351 5.652308 1.10384 2.783341 -0 11.98066 -0 -6.497027 -6.432034 -4.531588 -1.886707 -7.99592 -5.245152 -0 60.05928 -0 -5.3372 -5.68065 16.39348 1.532015 -1.56018 8.355358 -0.8798071 15.53232 -5.497311 2.114474 18.61453 0.9437537 -1.967083 -21.5461 5.447966 -7.350348 -32.05968 10.07418 95.155 20.8839 -9.104485 -0 0 27.292 -20.45334 14.20865 15.10243 -0.3437305 -20.18566 -6.586437 -90.4862 12.47814 36.58487 0 0 -19.37645 -0.180795 8.616516 16.11836
-654.4732 107.5733 2968.137 -3.756927 -7.17858 -33.11833 5.08794 5.849758 2.634343 -0 10.17942 -0 -6.386267 -9.039579 -3.632036 -0.8747482 -14.52578 -4.828449 -0 53.27917 -0 -5.338437 -6.323501 17.41941 1.369535 -1.3512 8.589077 -0.9680288 15.33858 -5.11836 2.20479 18.42846 0.6602486 -2.228727 -21.62854 5.440754 -7.356493 -32.87302 9.899896 94.07169 21.25343 -6.921777 -0 0 29.51864 -20.54776 14.78529 15.80377 -0.5366996 -19.00083 -6.133878 -91.7606 12.51746 38.76069 0 0 -16.75239 -1.05929 8.313321 17.13565
-657.2969 107.3312 2972.648 -3.538616 -6.644038 -33.83773 4.878994 9.783966 2.464158 -0 8.971521 -0 -6.082335 -11.60147 -2.784436 0.5188095 -19.94878 -4.178324 -0 43.04245 -0 -5.324976 -6.815097 18.36847 1.16874 -1.20555 8.734081 -1.017515 15.07132 -4.72877 2.272634 18.37546 0.5383665 -2.383535 -21.82045 5.517724 -7.295199 -33.4826 9.751152 92.97246 21.32927 -4.966334 -0 0 31.26003 -20.7901 15.14585 16.52724 -0.5724982 -17.95652 -5.696707 -93.16868 12.74965 40.59779 0 0 -14.04942 -1.696703 8.14136 17.90326
-660.0659 106.4894 2977.264 -3.376467 -5.666447 -34.47752 4.868997 12.91958 2.303367 -0 8.611504 -0 -5.578862 -14.12735 -2.031335 1.917211 -23.97477 -3.425944 -0 31.77326 -0 -5.156572 -6.907068 19.14647 0.9457041 -1.145631 8.786145 -1.030986 14.75119 -4.329968 2.312824 18.46889 0.5987521 -2.408512 -22.10945 5.68005 -7.150321 -33.86655 9.649272 91.8917 21.06205 -3.325065 -0 0 32.43647 -21.21463 15.26562 17.27443 -0.4383494 -17.10199 -5.303507 -94.70437 13.16487 42.05994 0 0 -11.29513 -2.051959 8.146687 18.3678
-662.8519 105.2941 2982.147 -3.151988 -4.472371 -35.11724 4.720611 15.35871 2.126944 -0 9.29263 -0 -4.997664 -16.23298 -1.31998 2.790087 -26.44446 -2.915753 -0 22.12855 -0 -4.745533 -6.64134 19.65108 0.7228273 -1.170388 8.751006 -1.020949 14.41022 -3.938441 2.325197 18.69476 0.8243151 -2.299884 -22.43593 5.905386 -6.920716 -34.01281 9.608464 90.89337 20.50968 -2.077752 -0 0 33.02419 -21.79643 15.15612 18.00247 -0.1592153 -16.47462 -4.983997 -96.25452 13.70004 43.09524 0 0 -8.638757 -2.126351 8.343144 18.50869
-665.7368 104.0507 2987.431 -2.801329 -3.464398 -35.7953 4.113497 17.28062 1.934751 -0 11.22102 -0 -4.507074 -17.13871 -0.6074912 2.706963 -27.37829 -3.073002 -0 15.97574 -0 -4.176333 -6.278619 19.8903 0.5222304 -1.254137 8.637852 -1.001336 14.08345 -3.584526 2.315146 19.02106 1.166313 -2.076562 -22.72456 6.15647 -6.622317 -33.91479 9.629566 90.05515 19.80262 -1.286365 -0 0 33.03745 -22.45468 14.8598 18.63094 0.2149456 -16.09463 -4.762394 -97.63778 14.28219 43.63835 0 0 -6.304984 -1.954873 8.71027 18.34042
-668.7832 103.0193 2993.184 -2.366916 -3.052678 -36.47141 2.925614 18.83736 1.808161 -0 14.63538 -0 -4.202726 -15.98941 0.04856901 1.57685 -26.96328 -4.126038 -0 13.69565 -0 -3.643721 -6.136962 20.00354 0.3592974 -1.359348 8.456737 -0.9796917 13.79881 -3.301282 2.291685 19.40995 1.563104 -1.775617 -22.92281 6.396616 -6.28424 -33.5791 9.699863 89.44048 19.07786 -0.9753125 -0 0 32.52257 -23.08669 14.43747 19.07763 0.6300924 -15.95905 -4.649474 -98.68845 14.86361 43.64754 0 0 -4.499546 -1.591151 9.202045 17.90996
